<?xml version="1.0" standalone="no"?><!DOCTYPE svg PUBLIC "-//W3C//DTD SVG 1.1//EN" "http://www.w3.org/Graphics/SVG/1.1/DTD/svg11.dtd"><svg t="1638599431768" class="icon" viewBox="0 0 1024 1024" version="1.1" xmlns="http://www.w3.org/2000/svg" p-id="45241" xmlns:xlink="http://www.w3.org/1999/xlink" width="200" height="200"><defs><style type="text/css"></style></defs><path d="M512 0C229.2 0 0 229.2 0 512s229.2 512 512 512 512-229.2 512-512S794.8 0 512 0z m0 930.9C280.6 930.9 93.1 743.4 93.1 512 93.1 280.6 280.6 93.1 512 93.1S930.9 280.6 930.9 512c0 231.4-187.5 418.9-418.9 418.9z" fill="#FDEDE7" p-id="45242"></path><path d="M512 93.1C280.6 93.1 93.1 280.6 93.1 512c0 231.4 187.6 418.9 418.9 418.9S930.9 743.4 930.9 512c0-231.4-187.5-418.9-418.9-418.9z m0 768c-192.8 0-349.1-156.3-349.1-349.1S319.2 162.9 512 162.9 861.1 319.2 861.1 512 704.8 861.1 512 861.1z" fill="#FFFFFF" p-id="45243"></path><path d="M512 162.9c-192.8 0-349.1 156.3-349.1 349.1S319.2 861.1 512 861.1 861.1 704.8 861.1 512 704.8 162.9 512 162.9z m166.3 378.7L527.2 669.5c-3.8 3.2-8.4 5-13 5.3-6 0.6-12.3-1.1-17.3-5.3L345.7 541.7c-9.8-8.3-11.1-23.1-2.9-33 8.2-9.9 22.9-11.2 32.7-2.9L512 621.2l136.5-115.4c9.8-8.3 24.5-7 32.7 2.9 8.1 9.8 6.9 24.7-2.9 32.9z m0-128L527.2 541.5c-3.8 3.2-8.4 5-13 5.3-6 0.6-12.3-1.1-17.3-5.3L345.7 413.7c-9.8-8.3-11.1-23.1-2.9-33 8.2-9.9 22.9-11.2 32.7-2.9L512 493.2l136.5-115.4c9.8-8.3 24.5-7 32.7 2.9 8.1 9.8 6.9 24.7-2.9 32.9z" fill="#EA4F16" p-id="45244"></path><path d="M648.4 377.8L512 493.2 375.6 377.8c-9.8-8.3-24.5-7-32.7 2.9-8.2 9.9-6.9 24.7 2.9 33l151.1 127.8c5 4.2 11.2 5.9 17.3 5.3 4.6-0.4 9.2-2.1 13-5.3l151.1-127.8c9.8-8.3 11.1-23.1 2.9-33-8.3-9.9-23-11.2-32.8-2.9z" fill="#FFFFFF" p-id="45245"></path><path d="M648.4 505.8L512 621.2 375.6 505.8c-9.8-8.3-24.5-7-32.7 2.9-8.2 9.9-6.9 24.7 2.9 33l151.1 127.8c5 4.2 11.2 5.9 17.3 5.3 4.6-0.4 9.2-2.1 13-5.3l151.1-127.8c9.8-8.3 11.1-23.1 2.9-33-8.3-9.9-23-11.2-32.8-2.9z" fill="#FFFFFF" p-id="45246"></path></svg>